<mxfile host="app.diagrams.net" modified="2023-11-10T03:39:49.347Z" agent="Mozilla/5.0 (Macintosh; Intel Mac OS X 10_15_7) AppleWebKit/605.1.15 (KHTML, like Gecko) Version/17.0 Safari/605.1.15" etag="OOJwWAQCd_dmDyWRJ5SE" version="22.1.0" type="github">
  <diagram name="Page-1" id="aLNcJ0cBYzIpP-c28dOU">
    <mxGraphModel dx="1019" dy="1400" grid="1" gridSize="10" guides="1" tooltips="1" connect="1" arrows="1" fold="1" page="1" pageScale="1" pageWidth="850" pageHeight="1100" math="0" shadow="0">
      <root>
        <mxCell id="0" />
        <mxCell id="1" parent="0" />
        <mxCell id="x4Mv0H-VFP38Vp32sLlT-2" value="ENSINAR QUALIDADE DE SOFTWARE A JOVENS MEMBROS DA IGREJA" style="ellipse;whiteSpace=wrap;html=1;" vertex="1" parent="1">
          <mxGeometry x="10" y="310" width="120" height="80" as="geometry" />
        </mxCell>
        <mxCell id="x4Mv0H-VFP38Vp32sLlT-3" value="PLANEJAMENTO&lt;br&gt;14 DIAS" style="rounded=0;whiteSpace=wrap;html=1;" vertex="1" parent="1">
          <mxGeometry x="170" y="320" width="120" height="60" as="geometry" />
        </mxCell>
        <mxCell id="x4Mv0H-VFP38Vp32sLlT-4" value="PLANEJAR AULAS&amp;nbsp;&lt;br&gt;7 DIAS" style="rounded=1;whiteSpace=wrap;html=1;" vertex="1" parent="1">
          <mxGeometry x="350" y="230" width="120" height="60" as="geometry" />
        </mxCell>
        <mxCell id="x4Mv0H-VFP38Vp32sLlT-5" value="MASTERIZAR O CONTEUDO&lt;br&gt;&amp;nbsp;7 DIAS" style="rounded=1;whiteSpace=wrap;html=1;" vertex="1" parent="1">
          <mxGeometry x="350" y="320" width="120" height="60" as="geometry" />
        </mxCell>
        <mxCell id="x4Mv0H-VFP38Vp32sLlT-6" value="DIVULGAR PARA A COMUNIDADE&lt;br&gt;&amp;nbsp;7 DIAS" style="rounded=1;whiteSpace=wrap;html=1;" vertex="1" parent="1">
          <mxGeometry x="350" y="410" width="120" height="60" as="geometry" />
        </mxCell>
        <mxCell id="x4Mv0H-VFP38Vp32sLlT-7" value="INSCREVER JOVENS&lt;br&gt;&amp;nbsp;14 DIAS" style="rounded=1;whiteSpace=wrap;html=1;" vertex="1" parent="1">
          <mxGeometry x="520" y="410" width="120" height="60" as="geometry" />
        </mxCell>
        <mxCell id="x4Mv0H-VFP38Vp32sLlT-8" value="GRAVAR E ENSAIAR AULAS&lt;br&gt;&amp;nbsp;14 DIAS" style="rounded=1;whiteSpace=wrap;html=1;" vertex="1" parent="1">
          <mxGeometry x="520" y="230" width="120" height="60" as="geometry" />
        </mxCell>
        <mxCell id="x4Mv0H-VFP38Vp32sLlT-9" value="MINISTRAR AULAS E DISPONIBILIZAR CONTEUDO ONLINE&lt;br&gt;&amp;nbsp;7 DIAS" style="rounded=1;whiteSpace=wrap;html=1;" vertex="1" parent="1">
          <mxGeometry x="680" y="285" width="120" height="130" as="geometry" />
        </mxCell>
        <mxCell id="x4Mv0H-VFP38Vp32sLlT-10" value="AUXILIAR JOVENS NA APRENDIZAGEM&lt;br&gt;7 DIAS" style="rounded=1;whiteSpace=wrap;html=1;" vertex="1" parent="1">
          <mxGeometry x="830" y="310" width="120" height="80" as="geometry" />
        </mxCell>
        <mxCell id="x4Mv0H-VFP38Vp32sLlT-11" value="CONCLUSAO DO PROJETO" style="rounded=1;whiteSpace=wrap;html=1;" vertex="1" parent="1">
          <mxGeometry x="980" y="320" width="120" height="60" as="geometry" />
        </mxCell>
        <mxCell id="x4Mv0H-VFP38Vp32sLlT-13" value="" style="endArrow=classic;html=1;rounded=0;entryX=0;entryY=0.5;entryDx=0;entryDy=0;" edge="1" parent="1" target="x4Mv0H-VFP38Vp32sLlT-3">
          <mxGeometry width="50" height="50" relative="1" as="geometry">
            <mxPoint x="120" y="350" as="sourcePoint" />
            <mxPoint x="530" y="480" as="targetPoint" />
          </mxGeometry>
        </mxCell>
        <mxCell id="x4Mv0H-VFP38Vp32sLlT-14" value="" style="endArrow=classic;html=1;rounded=0;exitX=1;exitY=0;exitDx=0;exitDy=0;entryX=0;entryY=1;entryDx=0;entryDy=0;" edge="1" parent="1" source="x4Mv0H-VFP38Vp32sLlT-3" target="x4Mv0H-VFP38Vp32sLlT-4">
          <mxGeometry width="50" height="50" relative="1" as="geometry">
            <mxPoint x="480" y="530" as="sourcePoint" />
            <mxPoint x="530" y="480" as="targetPoint" />
          </mxGeometry>
        </mxCell>
        <mxCell id="x4Mv0H-VFP38Vp32sLlT-15" value="" style="endArrow=classic;html=1;rounded=0;exitX=1;exitY=0.5;exitDx=0;exitDy=0;entryX=0;entryY=0.5;entryDx=0;entryDy=0;" edge="1" parent="1" source="x4Mv0H-VFP38Vp32sLlT-3" target="x4Mv0H-VFP38Vp32sLlT-5">
          <mxGeometry width="50" height="50" relative="1" as="geometry">
            <mxPoint x="480" y="530" as="sourcePoint" />
            <mxPoint x="530" y="480" as="targetPoint" />
          </mxGeometry>
        </mxCell>
        <mxCell id="x4Mv0H-VFP38Vp32sLlT-16" value="" style="endArrow=classic;html=1;rounded=0;exitX=1;exitY=1;exitDx=0;exitDy=0;entryX=0;entryY=0;entryDx=0;entryDy=0;" edge="1" parent="1" source="x4Mv0H-VFP38Vp32sLlT-3" target="x4Mv0H-VFP38Vp32sLlT-6">
          <mxGeometry width="50" height="50" relative="1" as="geometry">
            <mxPoint x="480" y="530" as="sourcePoint" />
            <mxPoint x="530" y="480" as="targetPoint" />
          </mxGeometry>
        </mxCell>
        <mxCell id="x4Mv0H-VFP38Vp32sLlT-17" value="" style="endArrow=classic;html=1;rounded=0;exitX=1;exitY=0.5;exitDx=0;exitDy=0;entryX=0;entryY=0.5;entryDx=0;entryDy=0;" edge="1" parent="1" source="x4Mv0H-VFP38Vp32sLlT-6" target="x4Mv0H-VFP38Vp32sLlT-7">
          <mxGeometry width="50" height="50" relative="1" as="geometry">
            <mxPoint x="480" y="530" as="sourcePoint" />
            <mxPoint x="530" y="480" as="targetPoint" />
          </mxGeometry>
        </mxCell>
        <mxCell id="x4Mv0H-VFP38Vp32sLlT-18" value="" style="endArrow=classic;html=1;rounded=0;exitX=1;exitY=0.5;exitDx=0;exitDy=0;entryX=0;entryY=0.5;entryDx=0;entryDy=0;" edge="1" parent="1" source="x4Mv0H-VFP38Vp32sLlT-4" target="x4Mv0H-VFP38Vp32sLlT-8">
          <mxGeometry width="50" height="50" relative="1" as="geometry">
            <mxPoint x="480" y="530" as="sourcePoint" />
            <mxPoint x="530" y="480" as="targetPoint" />
          </mxGeometry>
        </mxCell>
        <mxCell id="x4Mv0H-VFP38Vp32sLlT-19" value="" style="endArrow=classic;html=1;rounded=0;exitX=1;exitY=0;exitDx=0;exitDy=0;entryX=0.008;entryY=0.586;entryDx=0;entryDy=0;entryPerimeter=0;" edge="1" parent="1" source="x4Mv0H-VFP38Vp32sLlT-7" target="x4Mv0H-VFP38Vp32sLlT-9">
          <mxGeometry width="50" height="50" relative="1" as="geometry">
            <mxPoint x="480" y="530" as="sourcePoint" />
            <mxPoint x="530" y="480" as="targetPoint" />
          </mxGeometry>
        </mxCell>
        <mxCell id="x4Mv0H-VFP38Vp32sLlT-20" value="" style="endArrow=classic;html=1;rounded=0;exitX=1;exitY=0.5;exitDx=0;exitDy=0;entryX=0;entryY=0.5;entryDx=0;entryDy=0;" edge="1" parent="1" source="x4Mv0H-VFP38Vp32sLlT-9" target="x4Mv0H-VFP38Vp32sLlT-10">
          <mxGeometry width="50" height="50" relative="1" as="geometry">
            <mxPoint x="480" y="530" as="sourcePoint" />
            <mxPoint x="530" y="480" as="targetPoint" />
          </mxGeometry>
        </mxCell>
        <mxCell id="x4Mv0H-VFP38Vp32sLlT-21" value="" style="endArrow=classic;html=1;rounded=0;exitX=1;exitY=1;exitDx=0;exitDy=0;entryX=0;entryY=0.5;entryDx=0;entryDy=0;" edge="1" parent="1" source="x4Mv0H-VFP38Vp32sLlT-8" target="x4Mv0H-VFP38Vp32sLlT-9">
          <mxGeometry width="50" height="50" relative="1" as="geometry">
            <mxPoint x="610" y="320" as="sourcePoint" />
            <mxPoint x="660" y="270" as="targetPoint" />
          </mxGeometry>
        </mxCell>
        <mxCell id="x4Mv0H-VFP38Vp32sLlT-22" value="" style="endArrow=classic;html=1;rounded=0;exitX=1;exitY=0.5;exitDx=0;exitDy=0;" edge="1" parent="1" source="x4Mv0H-VFP38Vp32sLlT-10" target="x4Mv0H-VFP38Vp32sLlT-11">
          <mxGeometry width="50" height="50" relative="1" as="geometry">
            <mxPoint x="480" y="530" as="sourcePoint" />
            <mxPoint x="530" y="480" as="targetPoint" />
          </mxGeometry>
        </mxCell>
      </root>
    </mxGraphModel>
  </diagram>
</mxfile>
